<mxfile host="app.diagrams.net" agent="Mozilla/5.0 (Windows NT 10.0; Win64; x64) AppleWebKit/537.36 (KHTML, like Gecko) Chrome/127.0.0.0 Safari/537.36" version="24.7.16">
  <diagram name="PÃ¡gina-1" id="hwljBlQnKG7j5doprZCF">
    <mxGraphModel dx="637" dy="343" grid="1" gridSize="10" guides="1" tooltips="1" connect="1" arrows="1" fold="1" page="1" pageScale="1" pageWidth="827" pageHeight="1169" math="0" shadow="0">
      <root>
        <mxCell id="0" />
        <mxCell id="1" parent="0" />
        <mxCell id="ZGq-fwiLPlNXeD7ulv6E-5" value="Casa" style="swimlane;fontStyle=1;align=center;verticalAlign=top;childLayout=stackLayout;horizontal=1;startSize=26;horizontalStack=0;resizeParent=1;resizeParentMax=0;resizeLast=0;collapsible=1;marginBottom=0;whiteSpace=wrap;html=1;" vertex="1" parent="1">
          <mxGeometry x="30" y="60" width="240" height="130" as="geometry" />
        </mxCell>
        <mxCell id="ZGq-fwiLPlNXeD7ulv6E-6" value="- sensores:List&amp;lt;Sensor&amp;gt;&lt;div&gt;- vigilantes: List&amp;lt;Vigilante&amp;gt;&lt;/div&gt;" style="text;strokeColor=none;fillColor=none;align=left;verticalAlign=top;spacingLeft=4;spacingRight=4;overflow=hidden;rotatable=0;points=[[0,0.5],[1,0.5]];portConstraint=eastwest;whiteSpace=wrap;html=1;" vertex="1" parent="ZGq-fwiLPlNXeD7ulv6E-5">
          <mxGeometry y="26" width="240" height="44" as="geometry" />
        </mxCell>
        <mxCell id="ZGq-fwiLPlNXeD7ulv6E-7" value="" style="line;strokeWidth=1;fillColor=none;align=left;verticalAlign=middle;spacingTop=-1;spacingLeft=3;spacingRight=3;rotatable=0;labelPosition=right;points=[];portConstraint=eastwest;strokeColor=inherit;" vertex="1" parent="ZGq-fwiLPlNXeD7ulv6E-5">
          <mxGeometry y="70" width="240" height="8" as="geometry" />
        </mxCell>
        <mxCell id="ZGq-fwiLPlNXeD7ulv6E-8" value="+ notificar(): void&lt;div&gt;+ agregarVigilante(v: Vigilante): void&lt;/div&gt;&lt;div&gt;+ borrarVigilante(v: Vigilante): void&lt;br&gt;&lt;/div&gt;" style="text;strokeColor=#82b366;fillColor=#d5e8d4;align=left;verticalAlign=top;spacingLeft=4;spacingRight=4;overflow=hidden;rotatable=0;points=[[0,0.5],[1,0.5]];portConstraint=eastwest;whiteSpace=wrap;html=1;" vertex="1" parent="ZGq-fwiLPlNXeD7ulv6E-5">
          <mxGeometry y="78" width="240" height="52" as="geometry" />
        </mxCell>
        <mxCell id="ZGq-fwiLPlNXeD7ulv6E-9" value="&amp;nbsp; &amp;nbsp; public void notificar() {&lt;div&gt;&amp;nbsp; &amp;nbsp; &amp;nbsp; &amp;nbsp; foreach(Vigilante v in vigilantes){&lt;/div&gt;&lt;div&gt;&amp;nbsp; &amp;nbsp; &amp;nbsp; &amp;nbsp; &amp;nbsp; &amp;nbsp; v.actualizar(this);&lt;/div&gt;&lt;div&gt;&amp;nbsp; &amp;nbsp; &amp;nbsp; &amp;nbsp; }&lt;/div&gt;&lt;div&gt;&amp;nbsp; &amp;nbsp; }&lt;/div&gt;" style="shape=note;whiteSpace=wrap;html=1;backgroundOutline=1;darkOpacity=0.05;size=19;align=left;fillColor=#f5f5f5;fontColor=#333333;strokeColor=#666666;" vertex="1" parent="1">
          <mxGeometry x="90" y="230" width="210" height="100" as="geometry" />
        </mxCell>
        <mxCell id="ZGq-fwiLPlNXeD7ulv6E-10" style="edgeStyle=orthogonalEdgeStyle;rounded=0;orthogonalLoop=1;jettySize=auto;html=1;entryX=0.467;entryY=1;entryDx=0;entryDy=0;entryPerimeter=0;endArrow=none;endFill=0;dashed=1;" edge="1" parent="1" source="ZGq-fwiLPlNXeD7ulv6E-9" target="ZGq-fwiLPlNXeD7ulv6E-8">
          <mxGeometry relative="1" as="geometry" />
        </mxCell>
        <mxCell id="ZGq-fwiLPlNXeD7ulv6E-11" value="&lt;div&gt;&amp;lt;&amp;lt;Abstract&amp;gt;&amp;gt;&lt;/div&gt;Vigilante" style="swimlane;fontStyle=1;align=center;verticalAlign=top;childLayout=stackLayout;horizontal=1;startSize=42;horizontalStack=0;resizeParent=1;resizeParentMax=0;resizeLast=0;collapsible=1;marginBottom=0;whiteSpace=wrap;html=1;" vertex="1" parent="1">
          <mxGeometry x="330" y="60" width="260" height="76" as="geometry" />
        </mxCell>
        <mxCell id="ZGq-fwiLPlNXeD7ulv6E-13" value="" style="line;strokeWidth=1;fillColor=none;align=left;verticalAlign=middle;spacingTop=-1;spacingLeft=3;spacingRight=3;rotatable=0;labelPosition=right;points=[];portConstraint=eastwest;strokeColor=inherit;" vertex="1" parent="ZGq-fwiLPlNXeD7ulv6E-11">
          <mxGeometry y="42" width="260" height="8" as="geometry" />
        </mxCell>
        <mxCell id="ZGq-fwiLPlNXeD7ulv6E-14" value="+ &amp;lt;&amp;lt;abstract&amp;gt;&amp;gt; actualizar(c: Casa): void" style="text;strokeColor=#82b366;fillColor=#d5e8d4;align=left;verticalAlign=top;spacingLeft=4;spacingRight=4;overflow=hidden;rotatable=0;points=[[0,0.5],[1,0.5]];portConstraint=eastwest;whiteSpace=wrap;html=1;" vertex="1" parent="ZGq-fwiLPlNXeD7ulv6E-11">
          <mxGeometry y="50" width="260" height="26" as="geometry" />
        </mxCell>
        <mxCell id="ZGq-fwiLPlNXeD7ulv6E-15" style="edgeStyle=orthogonalEdgeStyle;rounded=0;orthogonalLoop=1;jettySize=auto;html=1;entryX=0;entryY=0.5;entryDx=0;entryDy=0;endArrow=open;endFill=0;startArrow=diamondThin;startFill=0;startSize=12;" edge="1" parent="1" source="ZGq-fwiLPlNXeD7ulv6E-6" target="ZGq-fwiLPlNXeD7ulv6E-11">
          <mxGeometry relative="1" as="geometry" />
        </mxCell>
        <mxCell id="ZGq-fwiLPlNXeD7ulv6E-16" value="VigilantePolicia" style="swimlane;fontStyle=1;align=center;verticalAlign=top;childLayout=stackLayout;horizontal=1;startSize=26;horizontalStack=0;resizeParent=1;resizeParentMax=0;resizeLast=0;collapsible=1;marginBottom=0;whiteSpace=wrap;html=1;" vertex="1" parent="1">
          <mxGeometry x="320" y="170" width="230" height="60" as="geometry" />
        </mxCell>
        <mxCell id="ZGq-fwiLPlNXeD7ulv6E-18" value="" style="line;strokeWidth=1;fillColor=none;align=left;verticalAlign=middle;spacingTop=-1;spacingLeft=3;spacingRight=3;rotatable=0;labelPosition=right;points=[];portConstraint=eastwest;strokeColor=inherit;" vertex="1" parent="ZGq-fwiLPlNXeD7ulv6E-16">
          <mxGeometry y="26" width="230" height="8" as="geometry" />
        </mxCell>
        <mxCell id="ZGq-fwiLPlNXeD7ulv6E-19" value="+ &amp;lt;&amp;lt;override&amp;gt;&amp;gt; actualizar(c: Casa): void" style="text;strokeColor=none;fillColor=none;align=left;verticalAlign=top;spacingLeft=4;spacingRight=4;overflow=hidden;rotatable=0;points=[[0,0.5],[1,0.5]];portConstraint=eastwest;whiteSpace=wrap;html=1;" vertex="1" parent="ZGq-fwiLPlNXeD7ulv6E-16">
          <mxGeometry y="34" width="230" height="26" as="geometry" />
        </mxCell>
        <mxCell id="ZGq-fwiLPlNXeD7ulv6E-20" value="VigilantePrivado" style="swimlane;fontStyle=1;align=center;verticalAlign=top;childLayout=stackLayout;horizontal=1;startSize=26;horizontalStack=0;resizeParent=1;resizeParentMax=0;resizeLast=0;collapsible=1;marginBottom=0;whiteSpace=wrap;html=1;" vertex="1" parent="1">
          <mxGeometry x="390" y="250" width="230" height="60" as="geometry" />
        </mxCell>
        <mxCell id="ZGq-fwiLPlNXeD7ulv6E-22" value="" style="line;strokeWidth=1;fillColor=none;align=left;verticalAlign=middle;spacingTop=-1;spacingLeft=3;spacingRight=3;rotatable=0;labelPosition=right;points=[];portConstraint=eastwest;strokeColor=inherit;" vertex="1" parent="ZGq-fwiLPlNXeD7ulv6E-20">
          <mxGeometry y="26" width="230" height="8" as="geometry" />
        </mxCell>
        <mxCell id="ZGq-fwiLPlNXeD7ulv6E-26" value="+ &amp;lt;&amp;lt;override&amp;gt;&amp;gt; actualizar(c: Casa): void" style="text;strokeColor=none;fillColor=none;align=left;verticalAlign=top;spacingLeft=4;spacingRight=4;overflow=hidden;rotatable=0;points=[[0,0.5],[1,0.5]];portConstraint=eastwest;whiteSpace=wrap;html=1;" vertex="1" parent="ZGq-fwiLPlNXeD7ulv6E-20">
          <mxGeometry y="34" width="230" height="26" as="geometry" />
        </mxCell>
        <mxCell id="ZGq-fwiLPlNXeD7ulv6E-24" style="edgeStyle=orthogonalEdgeStyle;rounded=0;orthogonalLoop=1;jettySize=auto;html=1;entryX=0.295;entryY=0.996;entryDx=0;entryDy=0;entryPerimeter=0;endArrow=block;endFill=0;endSize=8;" edge="1" parent="1" source="ZGq-fwiLPlNXeD7ulv6E-16" target="ZGq-fwiLPlNXeD7ulv6E-14">
          <mxGeometry relative="1" as="geometry" />
        </mxCell>
        <mxCell id="ZGq-fwiLPlNXeD7ulv6E-25" style="edgeStyle=orthogonalEdgeStyle;rounded=0;orthogonalLoop=1;jettySize=auto;html=1;entryX=0.692;entryY=1.015;entryDx=0;entryDy=0;entryPerimeter=0;endArrow=block;endFill=0;startSize=10;endSize=9;exitX=0.836;exitY=0.027;exitDx=0;exitDy=0;exitPerimeter=0;" edge="1" parent="1" source="ZGq-fwiLPlNXeD7ulv6E-20" target="ZGq-fwiLPlNXeD7ulv6E-14">
          <mxGeometry relative="1" as="geometry">
            <mxPoint x="580" y="270" as="sourcePoint" />
            <Array as="points">
              <mxPoint x="580" y="252" />
              <mxPoint x="580" y="160" />
              <mxPoint x="510" y="160" />
            </Array>
          </mxGeometry>
        </mxCell>
        <mxCell id="ZGq-fwiLPlNXeD7ulv6E-27" value="0..*" style="text;html=1;align=center;verticalAlign=middle;resizable=0;points=[];autosize=1;strokeColor=none;fillColor=none;" vertex="1" parent="1">
          <mxGeometry x="298" y="72" width="40" height="30" as="geometry" />
        </mxCell>
        <mxCell id="ZGq-fwiLPlNXeD7ulv6E-28" value="0..*" style="text;html=1;align=center;verticalAlign=middle;resizable=0;points=[];autosize=1;strokeColor=none;fillColor=none;" vertex="1" parent="1">
          <mxGeometry x="265" y="106" width="40" height="30" as="geometry" />
        </mxCell>
      </root>
    </mxGraphModel>
  </diagram>
</mxfile>
